<svg width="90" height="120" viewBox="0 0 90 120" fill="none" xmlns="http://www.w3.org/2000/svg">
<path d="M2.5074 45.6229C2.5074 42.5455 5.21811 40.0508 8.56194 40.0508H81.2164C84.5603 40.0508 87.271 42.5455 87.271 45.6229V46.7373C87.271 49.8147 84.5603 52.3094 81.2164 52.3094H8.56194C5.21811 52.3094 2.5074 49.8147 2.5074 46.7373V45.6229Z" fill="#00B38A"/>
<path d="M73.7078 115.585C73.0126 118.595 69.7975 120.517 66.5268 119.877L65.3423 119.645C62.0716 119.006 59.9837 116.047 60.6789 113.036L76.7917 43.2722C77.4869 40.2621 80.702 38.3406 83.9727 38.9804L85.1572 39.2121C88.4279 39.8519 90.5158 42.8108 89.8206 45.8209L73.7078 115.585Z" fill="#00B38A"/>
<path d="M40.4641 10.0463C38.2267 7.7594 38.4273 4.23618 40.9122 2.177L41.8121 1.43131C44.2971 -0.627862 48.1253 -0.443218 50.3628 1.84372L88.4448 40.768C90.6823 43.0549 90.4816 46.5781 87.9967 48.6373L87.0968 49.383C84.6119 51.4422 80.7836 51.2575 78.5461 48.9706L40.4641 10.0463Z" fill="#00B38A"/>
<path d="M39.7971 1.84368C42.0346 -0.443258 45.8629 -0.627903 48.3478 1.43127L49.2477 2.17696C51.7326 4.23613 51.9333 7.75936 49.6958 10.0463L11.6138 48.9705C9.37634 51.2575 5.54807 51.4421 3.06312 49.3829L2.16324 48.6373C-0.321712 46.5781 -0.522343 43.0549 1.71512 40.7679L39.7971 1.84368Z" fill="#00B38A"/>
<path d="M29.2752 113.037C29.9705 116.047 27.8826 119.006 24.6118 119.645L23.4274 119.877C20.1566 120.517 16.9415 118.595 16.2463 115.585L0.133549 45.821C-0.561672 42.8108 1.52621 39.852 4.79697 39.2121L5.98142 38.9804C9.25218 38.3406 12.4672 40.2621 13.1625 43.2723L29.2752 113.037Z" fill="#00B38A"/>
</svg>
